<?xml version="1.0" encoding="utf-8"?>
<!-- Generator: Adobe Illustrator 16.0.0, SVG Export Plug-In . SVG Version: 6.00 Build 0)  -->
<!DOCTYPE svg PUBLIC "-//W3C//DTD SVG 1.1//EN" "http://www.w3.org/Graphics/SVG/1.1/DTD/svg11.dtd">
<svg version="1.1" id="Layer_1" xmlns="http://www.w3.org/2000/svg" xmlns:xlink="http://www.w3.org/1999/xlink" x="0px" y="0px"
	 width="369px" height="81px" viewBox="0 0 369 81" enable-background="new 0 0 369 81" xml:space="preserve">
<g>
	<path fill="#FFFFFF" d="M73.512,33.455H58.711v-9.893c0-2.876-0.158-4.672-0.475-5.385s-1.014-1.07-2.092-1.07
		c-1.219,0-1.992,0.434-2.32,1.301c-0.329,0.867-0.492,2.742-0.492,5.625v26.438c0,2.766,0.164,4.57,0.492,5.414
		c0.328,0.844,1.066,1.266,2.215,1.266c1.102,0,1.822-0.423,2.162-1.269c0.339-0.846,0.51-2.831,0.51-5.956v-7.154h14.801v2.218
		c0,5.892-0.417,10.07-1.248,12.534c-0.832,2.465-2.672,4.624-5.52,6.479c-2.848,1.854-6.358,2.781-10.529,2.781
		c-4.336,0-7.91-0.785-10.723-2.355s-4.676-3.744-5.59-6.521s-1.371-6.955-1.371-12.533V28.744c0-4.102,0.141-7.178,0.422-9.229
		s1.119-4.025,2.514-5.924c1.394-1.898,3.328-3.393,5.801-4.482c2.473-1.09,5.314-1.635,8.525-1.635
		c4.359,0,7.957,0.843,10.793,2.528c2.835,1.685,4.699,3.786,5.59,6.302c0.891,2.516,1.336,6.431,1.336,11.743V33.455z"/>
	<path fill="#FFFFFF" d="M92.602,8.67v12.806c1.218-1.128,2.537-1.974,3.955-2.538c1.418-0.563,2.936-0.846,4.553-0.846
		c2.484,0,4.6,0.633,6.346,1.898c1.746,1.266,2.813,2.725,3.199,4.377s0.58,4.67,0.58,9.053v32.168H97.031V32.752
		c0-2.719-0.135-4.465-0.404-5.238c-0.27-0.773-0.874-1.16-1.811-1.16c-0.867,0-1.454,0.398-1.758,1.195
		c-0.305,0.797-0.457,2.379-0.457,4.746v33.293H78.398V8.67H92.602z"/>
	<path fill="#FFFFFF" d="M128.813,37.006h-13.324v-3.129c0-3.609,0.416-6.393,1.248-8.35c0.832-1.957,2.501-3.686,5.01-5.186
		c2.508-1.5,5.766-2.25,9.773-2.25c4.804,0,8.425,0.85,10.863,2.549c2.438,1.699,3.902,3.785,4.395,6.258s0.738,7.564,0.738,15.275
		v23.414h-13.816v-4.157c-0.867,1.667-1.986,2.917-3.357,3.751c-1.371,0.833-3.006,1.25-4.904,1.25
		c-2.484,0-4.764-0.697-6.838-2.092s-3.111-4.447-3.111-9.158V51.35c0-3.492,0.55-5.871,1.652-7.137
		c1.102-1.266,3.832-2.742,8.191-4.43c4.664-1.828,7.16-3.059,7.488-3.691c0.328-0.633,0.492-1.922,0.492-3.867
		c0-2.438-0.182-4.025-0.545-4.764c-0.364-0.738-0.967-1.107-1.811-1.107c-0.961,0-1.559,0.311-1.793,0.932
		c-0.234,0.621-0.352,2.232-0.352,4.834V37.006z M133.313,43.404c-2.273,1.664-3.592,3.059-3.955,4.184
		c-0.364,1.125-0.545,2.742-0.545,4.852c0,2.414,0.158,3.973,0.475,4.676s0.943,1.055,1.881,1.055c0.891,0,1.471-0.275,1.74-0.826
		c0.269-0.551,0.404-1.998,0.404-4.342V43.404z"/>
	<path fill="#FFFFFF" d="M167.027,8.67v56.918h-14.625V8.67H167.027z"/>
	<path fill="#FFFFFF" d="M186.75,8.67v56.918h-14.625V8.67H186.75z"/>
	<path fill="#FFFFFF" d="M224.016,43.088h-18.387v10.09c0,2.109,0.152,3.469,0.457,4.078s0.891,0.914,1.758,0.914
		c1.078,0,1.799-0.404,2.162-1.213s0.545-2.373,0.545-4.693v-6.152h13.465v3.445c0,2.883-0.182,5.098-0.545,6.645
		s-1.213,3.199-2.549,4.957s-3.029,3.076-5.08,3.955s-4.623,1.318-7.717,1.318c-3,0-5.648-0.434-7.945-1.301
		s-4.084-2.057-5.361-3.568s-2.162-3.176-2.654-4.992s-0.738-4.459-0.738-7.928V35.037c0-4.078,0.551-7.295,1.652-9.65
		s2.906-4.16,5.414-5.414s5.391-1.881,8.648-1.881c3.984,0,7.271,0.756,9.861,2.268s4.406,3.516,5.449,6.012
		s1.564,6.006,1.564,10.529V43.088z M209.777,35.494v-3.41c0-2.414-0.129-3.973-0.387-4.676s-0.785-1.055-1.582-1.055
		c-0.984,0-1.594,0.299-1.828,0.896s-0.352,2.209-0.352,4.834v3.41H209.777z"/>
	<path fill="#FFFFFF" d="M243.105,18.936l-0.246,4.298c1.031-1.714,2.291-2.999,3.779-3.856c1.488-0.856,3.205-1.285,5.15-1.285
		c2.438,0,4.43,0.574,5.977,1.723s2.543,2.596,2.988,4.342s0.668,4.658,0.668,8.736v32.695h-14.203V33.279
		c0-3.211-0.105-5.168-0.316-5.871s-0.797-1.055-1.758-1.055c-1.008,0-1.641,0.404-1.898,1.213s-0.387,2.971-0.387,6.486v31.535
		h-14.203V18.936H243.105z"/>
	<path fill="#FFFFFF" d="M298.582,18.936v35.93c0,4.852-0.111,7.986-0.334,9.404s-1.014,2.918-2.373,4.5s-3.252,2.789-5.678,3.621
		s-5.479,1.248-9.158,1.248c-4.523,0-8.156-0.768-10.898-2.303s-4.16-4.553-4.254-9.053h13.781c0,2.063,0.75,3.094,2.25,3.094
		c1.078,0,1.793-0.316,2.145-0.95s0.527-1.959,0.527-3.977v-3.52c-1.219,1.104-2.502,1.939-3.85,2.503s-2.76,0.846-4.236,0.846
		c-2.555,0-4.658-0.516-6.311-1.547s-2.783-2.385-3.393-4.061s-0.914-4.061-0.914-7.154V30.572c0-4.43,0.797-7.617,2.391-9.563
		s4.02-2.918,7.277-2.918c1.781,0,3.404,0.364,4.869,1.092c1.465,0.729,2.771,1.82,3.92,3.276l1.02-3.524H298.582z M284.344,31.311
		c0-2.133-0.123-3.492-0.369-4.078s-0.791-0.879-1.635-0.879c-0.82,0-1.4,0.334-1.74,1.002s-0.51,1.986-0.51,3.955v15.68
		c0,2.086,0.129,3.439,0.387,4.061s0.797,0.932,1.617,0.932c0.938,0,1.547-0.375,1.828-1.125s0.422-2.449,0.422-5.098V31.311z"/>
	<path fill="#FFFFFF" d="M335.813,43.088h-18.387v10.09c0,2.109,0.152,3.469,0.457,4.078s0.891,0.914,1.758,0.914
		c1.078,0,1.799-0.404,2.162-1.213s0.545-2.373,0.545-4.693v-6.152h13.465v3.445c0,2.883-0.182,5.098-0.545,6.645
		s-1.213,3.199-2.549,4.957s-3.029,3.076-5.08,3.955s-4.623,1.318-7.717,1.318c-3,0-5.648-0.434-7.945-1.301
		s-4.084-2.057-5.361-3.568s-2.162-3.176-2.654-4.992s-0.738-4.459-0.738-7.928V35.037c0-4.078,0.551-7.295,1.652-9.65
		s2.906-4.16,5.414-5.414s5.391-1.881,8.648-1.881c3.984,0,7.271,0.756,9.861,2.268s4.406,3.516,5.449,6.012
		s1.564,6.006,1.564,10.529V43.088z M321.574,35.494v-3.41c0-2.414-0.129-3.973-0.387-4.676s-0.785-1.055-1.582-1.055
		c-0.984,0-1.594,0.299-1.828,0.896s-0.352,2.209-0.352,4.834v3.41H321.574z"/>
</g>
<polygon fill="#64BEBE" points="74.894,81 0,81 0,7.396 "/>
<polygon fill="#FECC30" points="295.508,0 369,0 369,73.479 "/>
</svg>
