<?xml version="1.0" encoding="utf-8"?>
<!-- Generator: Adobe Illustrator 16.0.0, SVG Export Plug-In . SVG Version: 6.00 Build 0)  -->
<!DOCTYPE svg PUBLIC "-//W3C//DTD SVG 1.1//EN" "http://www.w3.org/Graphics/SVG/1.1/DTD/svg11.dtd">
<svg version="1.1" id="Layer_1" xmlns="http://www.w3.org/2000/svg" xmlns:xlink="http://www.w3.org/1999/xlink" x="0px" y="0px"
	 width="413px" height="127.336px" viewBox="0 0 413 127.336" enable-background="new 0 0 413 127.336" xml:space="preserve">
<g>
	<g>
		<polygon fill="#64BEBE" points="74.625,84 0,84 0,10.244 		"/>
		<polygon fill="#FECC30" points="339.24,47 413,47 413,120.328 		"/>
	</g>
	<g>
		<path fill="none" d="M333.582,80.051c-0.82,0-1.4,0.334-1.74,1.002s-0.51,1.986-0.51,3.955v15.68c0,2.086,0.129,3.439,0.387,4.061
			s0.797,0.932,1.617,0.932c0.938,0,1.547-0.375,1.828-1.125s0.422-2.449,0.422-5.098V85.008c0-2.133-0.123-3.492-0.369-4.078
			S334.426,80.051,333.582,80.051z"/>
		<path fill="none" d="M142.023,50.534c0.891,0,1.471-0.275,1.74-0.826c0.269-0.551,0.404-1.998,0.404-4.342v-9.598
			c-2.273,1.664-3.592,3.059-3.955,4.184c-0.364,1.125-0.545,2.742-0.545,4.852c0,2.414,0.158,3.973,0.475,4.676
			S141.086,50.534,142.023,50.534z"/>
		<path fill="none" d="M180.6,101.285c-0.364,1.125-0.545,2.742-0.545,4.852c0,2.414,0.158,3.973,0.475,4.676
			s0.943,1.055,1.881,1.055c0.891,0,1.471-0.275,1.74-0.826c0.269-0.551,0.404-1.998,0.404-4.342v-9.598
			C182.281,98.766,180.963,100.16,180.6,101.285z"/>
		<path fill="none" d="M108.098,24.448c0-2.414-0.129-3.973-0.387-4.676c-0.258-0.703-0.786-1.055-1.582-1.055
			c-0.984,0-1.594,0.299-1.828,0.896c-0.234,0.598-0.352,2.209-0.352,4.834v3.41h4.148V24.448z"/>
		<path fill="none" d="M203.125,24.448c0-2.414-0.129-3.973-0.387-4.676c-0.258-0.703-0.786-1.055-1.582-1.055
			c-0.984,0-1.594,0.299-1.828,0.896c-0.234,0.598-0.352,2.209-0.352,4.834v3.41h4.148V24.448z"/>
		<path fill="none" d="M261.02,85.781c0-2.414-0.129-3.973-0.387-4.676s-0.785-1.055-1.582-1.055c-0.984,0-1.594,0.299-1.828,0.896
			s-0.352,2.209-0.352,4.834v3.41h4.148V85.781z"/>
		<path fill="#FFFFFF" d="M58.264,49.888c0.832-2.464,1.248-6.643,1.248-12.534v-2.218H44.711v7.154
			c0,2.229-0.088,3.867-0.261,4.937l8.793,8.793C55.801,54.243,57.482,52.202,58.264,49.888z"/>
		<path fill="#FFFFFF" d="M39.332,42.108V16.397c0-2.883,0.164-4.758,0.492-5.625c0.328-0.867,1.102-1.301,2.32-1.301
			c1.078,0,1.775,0.357,2.092,1.07s0.475,2.509,0.475,5.385v9.893h14.801v-5.407c0-5.313-0.445-9.228-1.336-11.743
			c-0.891-2.516-2.754-4.617-5.59-6.302c-2.836-1.686-6.434-2.528-10.793-2.528c-3.211,0-6.053,0.545-8.525,1.635
			c-2.473,1.09-4.407,2.584-5.801,4.482c-1.395,1.898-2.232,3.873-2.514,5.924s-0.422,5.127-0.422,9.229v6.199L39.332,42.108z"/>
		<path fill="#FFFFFF" d="M64.398,11.3v46.652h14.203V39.53c0-4.523,0.141-7.412,0.422-8.666s1.031-2.232,2.25-2.936
			c1.218-0.703,3.129-1.055,5.73-1.055V10.456c-3.915,0.259-6.903,2.585-8.965,6.979l0.563-6.135H64.398z"/>
		<path fill="#FFFFFF" d="M122.336,35.452v-6.188c0-4.523-0.522-8.033-1.564-10.529c-1.043-2.496-2.86-4.5-5.449-6.012
			c-2.59-1.512-5.877-2.268-9.861-2.268c-3.258,0-6.141,0.627-8.648,1.881c-2.508,1.254-4.313,3.059-5.414,5.414
			c-1.102,2.355-1.652,5.572-1.652,9.65v13.605c0,3.469,0.246,6.111,0.738,7.928s1.376,3.48,2.654,4.992
			c1.277,1.512,3.064,2.701,5.361,3.568c2.297,0.867,4.945,1.301,7.945,1.301c3.094,0,5.666-0.439,7.717-1.318
			c2.051-0.879,3.744-2.197,5.08-3.955s2.185-3.41,2.549-4.957c0.363-1.547,0.545-3.762,0.545-6.645v-3.445h-13.465v6.152
			c0,2.32-0.182,3.885-0.545,4.693c-0.364,0.809-1.084,1.213-2.162,1.213c-0.867,0-1.454-0.305-1.758-0.914
			c-0.305-0.609-0.457-1.969-0.457-4.078v-10.09H122.336z M103.949,24.448c0-2.625,0.117-4.236,0.352-4.834
			c0.234-0.598,0.844-0.896,1.828-0.896c0.796,0,1.324,0.352,1.582,1.055c0.258,0.703,0.387,2.262,0.387,4.676v3.41h-4.148V24.448z"
			/>
		<path fill="#FFFFFF" d="M129.455,56.704c2.074,1.395,4.354,2.092,6.838,2.092c1.898,0,3.533-0.417,4.904-1.25
			c1.371-0.834,2.49-2.084,3.357-3.751v4.157h13.816V34.538c0-7.711-0.246-12.803-0.738-15.275s-1.957-4.559-4.395-6.258
			c-2.438-1.699-6.059-2.549-10.863-2.549c-4.008,0-7.266,0.75-9.773,2.25c-2.508,1.5-4.178,3.229-5.01,5.186
			c-0.832,1.957-1.248,4.74-1.248,8.35v3.129h13.324v-4.887c0-2.602,0.117-4.213,0.352-4.834c0.234-0.621,0.832-0.932,1.793-0.932
			c0.844,0,1.447,0.369,1.811,1.107c0.363,0.738,0.545,2.326,0.545,4.764c0,1.945-0.164,3.234-0.492,3.867
			c-0.329,0.633-2.825,1.863-7.488,3.691c-4.359,1.688-7.09,3.164-8.191,4.43c-1.102,1.266-1.652,3.645-1.652,7.137v3.832
			C126.344,52.257,127.381,55.31,129.455,56.704z M140.213,39.952c0.363-1.125,1.682-2.52,3.955-4.184v9.598
			c0,2.344-0.135,3.791-0.404,4.342c-0.27,0.551-0.85,0.826-1.74,0.826c-0.938,0-1.564-0.352-1.881-1.055s-0.475-2.262-0.475-4.676
			C139.668,42.694,139.849,41.077,140.213,39.952z"/>
		<path fill="#FFFFFF" d="M164.383,52.345c0.258,1.254,0.914,2.367,1.969,3.34s2.273,1.594,3.656,1.863
			c1.383,0.27,3.691,0.404,6.926,0.404h5.73v-7.523c-2.32,0-3.639-0.176-3.955-0.527s-0.475-2.063-0.475-5.133V19.808h3.832v-7.383
			h-3.832V5.077h-14.238v7.348h-3.059v7.383h3.059v23.695C163.996,48.144,164.125,51.091,164.383,52.345z"/>
		<path fill="#FFFFFF" d="M209.189,57.478c2.051-0.879,3.744-2.197,5.08-3.955s2.186-3.41,2.549-4.957s0.545-3.762,0.545-6.645
			v-3.445h-13.465v6.152c0,2.32-0.182,3.885-0.545,4.693c-0.364,0.809-1.084,1.213-2.162,1.213c-0.867,0-1.454-0.305-1.758-0.914
			c-0.305-0.609-0.457-1.969-0.457-4.078v-10.09h18.387v-6.188c0-4.523-0.521-8.033-1.564-10.529s-2.859-4.5-5.449-6.012
			s-5.877-2.268-9.861-2.268c-3.258,0-6.141,0.627-8.648,1.881c-2.508,1.254-4.313,3.059-5.414,5.414
			c-1.102,2.355-1.652,5.572-1.652,9.65v13.605c0,3.469,0.246,6.111,0.738,7.928s1.376,3.48,2.654,4.992
			c1.277,1.512,3.064,2.701,5.361,3.568c2.297,0.867,4.945,1.301,7.945,1.301C204.566,58.796,207.138,58.356,209.189,57.478z
			 M198.977,24.448c0-2.625,0.117-4.236,0.352-4.834c0.234-0.598,0.844-0.896,1.828-0.896c0.796,0,1.324,0.352,1.582,1.055
			c0.258,0.703,0.387,2.262,0.387,4.676v3.41h-4.148V24.448z"/>
		<path fill="#FFFFFF" d="M124.754,87.152v-5.407c0-5.313-0.445-9.228-1.336-11.743c-0.891-2.516-2.754-4.617-5.59-6.302
			c-2.836-1.686-6.434-2.528-10.793-2.528c-3.211,0-6.053,0.545-8.525,1.635c-2.473,1.09-4.407,2.584-5.801,4.482
			c-1.395,1.898-2.232,3.873-2.514,5.924s-0.422,5.127-0.422,9.229V99.07c0,5.578,0.457,9.756,1.371,12.533s2.777,4.951,5.59,6.521
			s6.386,2.355,10.723,2.355c4.171,0,7.682-0.928,10.529-2.781c2.848-1.854,4.688-4.014,5.52-6.479
			c0.832-2.464,1.248-6.643,1.248-12.534v-2.218h-14.801v7.154c0,3.125-0.17,5.11-0.51,5.956c-0.34,0.846-1.061,1.269-2.162,1.269
			c-1.148,0-1.887-0.422-2.215-1.266c-0.329-0.844-0.492-2.648-0.492-5.414V77.73c0-2.883,0.164-4.758,0.492-5.625
			c0.328-0.867,1.102-1.301,2.32-1.301c1.078,0,1.775,0.357,2.092,1.07s0.475,2.509,0.475,5.385v9.893H124.754z"/>
		<path fill="#FFFFFF" d="M162.477,119.285V87.117c0-4.383-0.193-7.4-0.58-9.053s-1.454-3.111-3.199-4.377
			c-1.746-1.266-3.862-1.898-6.346-1.898c-1.617,0-3.135,0.282-4.553,0.846c-1.418,0.564-2.737,1.41-3.955,2.538V62.367h-14.203
			v56.918h14.203V85.992c0-2.367,0.152-3.949,0.457-4.746c0.304-0.797,0.891-1.195,1.758-1.195c0.937,0,1.541,0.387,1.811,1.16
			c0.269,0.773,0.404,2.52,0.404,5.238v32.836H162.477z"/>
		<path fill="#FFFFFF" d="M198.758,119.285V95.871c0-7.711-0.246-12.803-0.738-15.275s-1.957-4.559-4.395-6.258
			c-2.438-1.699-6.059-2.549-10.863-2.549c-4.008,0-7.266,0.75-9.773,2.25c-2.508,1.5-4.178,3.229-5.01,5.186
			c-0.832,1.957-1.248,4.74-1.248,8.35v3.129h13.324v-4.887c0-2.602,0.117-4.213,0.352-4.834c0.234-0.621,0.832-0.932,1.793-0.932
			c0.844,0,1.447,0.369,1.811,1.107c0.363,0.738,0.545,2.326,0.545,4.764c0,1.945-0.164,3.234-0.492,3.867
			c-0.329,0.633-2.825,1.863-7.488,3.691c-4.359,1.688-7.09,3.164-8.191,4.43c-1.102,1.266-1.652,3.645-1.652,7.137v3.832
			c0,4.711,1.037,7.764,3.111,9.158s4.354,2.092,6.838,2.092c1.898,0,3.533-0.417,4.904-1.25c1.371-0.834,2.49-2.084,3.357-3.751
			v4.157H198.758z M184.555,106.699c0,2.344-0.135,3.791-0.404,4.342c-0.27,0.551-0.85,0.826-1.74,0.826
			c-0.938,0-1.564-0.352-1.881-1.055s-0.475-2.262-0.475-4.676c0-2.109,0.181-3.727,0.545-4.852c0.363-1.125,1.682-2.52,3.955-4.184
			V106.699z"/>
		<rect x="203.645" y="62.367" fill="#FFFFFF" width="14.625" height="56.918"/>
		<rect x="223.367" y="62.367" fill="#FFFFFF" width="14.625" height="56.918"/>
		<path fill="#FFFFFF" d="M272.164,114.855c1.336-1.758,2.186-3.41,2.549-4.957s0.545-3.762,0.545-6.645v-3.445h-13.465v6.152
			c0,2.32-0.182,3.885-0.545,4.693s-1.084,1.213-2.162,1.213c-0.867,0-1.453-0.305-1.758-0.914s-0.457-1.969-0.457-4.078v-10.09
			h18.387v-6.188c0-4.523-0.521-8.033-1.564-10.529s-2.859-4.5-5.449-6.012s-5.877-2.268-9.861-2.268
			c-3.258,0-6.141,0.627-8.648,1.881s-4.313,3.059-5.414,5.414s-1.652,5.572-1.652,9.65v13.605c0,3.469,0.246,6.111,0.738,7.928
			s1.377,3.48,2.654,4.992s3.064,2.701,5.361,3.568s4.945,1.301,7.945,1.301c3.094,0,5.666-0.439,7.717-1.318
			S270.828,116.613,272.164,114.855z M256.871,85.781c0-2.625,0.117-4.236,0.352-4.834s0.844-0.896,1.828-0.896
			c0.797,0,1.324,0.352,1.582,1.055s0.387,2.262,0.387,4.676v3.41h-4.148V85.781z"/>
		<path fill="#FFFFFF" d="M312.664,119.285V86.59c0-4.078-0.223-6.99-0.668-8.736s-1.441-3.193-2.988-4.342
			s-3.539-1.723-5.977-1.723c-1.945,0-3.662,0.429-5.15,1.285c-1.488,0.857-2.748,2.143-3.779,3.856l0.246-4.298h-14.449v46.652
			h14.203V87.75c0-3.516,0.129-5.678,0.387-6.486s0.891-1.213,1.898-1.213c0.961,0,1.547,0.352,1.758,1.055s0.316,2.66,0.316,5.871
			v32.309H312.664z"/>
		<path fill="#FFFFFF" d="M335.305,118.124c-0.352,0.634-1.066,0.95-2.145,0.95c-1.5,0-2.25-1.031-2.25-3.094h-13.781
			c0.094,4.5,1.512,7.518,4.254,9.053s6.375,2.303,10.898,2.303c3.68,0,6.732-0.416,9.158-1.248s4.318-2.039,5.678-3.621
			s2.15-3.082,2.373-4.5s0.334-4.553,0.334-9.404v-35.93h-13.219l-1.02,3.524c-1.148-1.456-2.455-2.548-3.92-3.276
			c-1.465-0.728-3.088-1.092-4.869-1.092c-3.258,0-5.684,0.973-7.277,2.918s-2.391,5.133-2.391,9.563v16.945
			c0,3.094,0.305,5.479,0.914,7.154s1.74,3.029,3.393,4.061s3.756,1.547,6.311,1.547c1.477,0,2.889-0.282,4.236-0.846
			s2.631-1.398,3.85-2.503v3.52C335.832,116.165,335.656,117.49,335.305,118.124z M335.586,99.457c0,2.648-0.141,4.348-0.422,5.098
			s-0.891,1.125-1.828,1.125c-0.82,0-1.359-0.311-1.617-0.932s-0.387-1.975-0.387-4.061v-15.68c0-1.969,0.17-3.287,0.51-3.955
			s0.92-1.002,1.74-1.002c0.844,0,1.389,0.293,1.635,0.879s0.369,1.945,0.369,4.078V99.457z"/>
		<path fill="#FFFFFF" d="M368.733,82.983l-8.538-8.538c-1.819,1.186-3.185,2.728-4.078,4.639c-1.102,2.355-1.652,5.572-1.652,9.65
			v13.605c0,3.469,0.246,6.111,0.738,7.928s1.377,3.48,2.654,4.992s3.064,2.701,5.361,3.568s4.945,1.301,7.945,1.301
			c3.094,0,5.666-0.439,7.717-1.318s3.744-2.197,5.08-3.955s2.186-3.41,2.549-4.957s0.545-3.762,0.545-6.645v-1.949l-1.496-1.496
			H373.59v6.152c0,2.32-0.182,3.885-0.545,4.693s-1.084,1.213-2.162,1.213c-0.867,0-1.453-0.305-1.758-0.914
			s-0.457-1.969-0.457-4.078v-10.09h13.867l-9.719-9.719v2.125h-4.148v-3.41C368.668,84.66,368.69,83.735,368.733,82.983z"/>
	</g>
</g>
</svg>
