<?xml version="1.0" encoding="utf-8"?>
<!-- Generator: Adobe Illustrator 16.0.0, SVG Export Plug-In . SVG Version: 6.00 Build 0)  -->
<!DOCTYPE svg PUBLIC "-//W3C//DTD SVG 1.1//EN" "http://www.w3.org/Graphics/SVG/1.1/DTD/svg11.dtd">
<svg version="1.1" id="Layer_1" xmlns="http://www.w3.org/2000/svg" xmlns:xlink="http://www.w3.org/1999/xlink" x="0px" y="0px"
	 width="401px" height="82px" viewBox="0 0 401 82" enable-background="new 0 0 401 82" xml:space="preserve">
<g>
	<g>
		<polygon fill="#FECC30" points="327.313,1 401,1 401,74.479 		"/>
		<polygon fill="#64BEBE" points="74.698,82 0,82 0,8.396 		"/>
	</g>
	<g>
		<path fill="none" d="M125.219,48.408c-0.363,1.125-0.545,2.742-0.545,4.852c0,2.414,0.158,3.973,0.475,4.676
			s0.943,1.055,1.881,1.055c0.891,0,1.471-0.275,1.74-0.826s0.404-1.998,0.404-4.342v-9.598
			C126.9,45.889,125.582,47.283,125.219,48.408z"/>
		<path fill="none" d="M317.436,32.904c0-2.414-0.129-3.973-0.387-4.676s-0.785-1.055-1.582-1.055c-0.984,0-1.594,0.299-1.828,0.896
			s-0.352,2.209-0.352,4.834v3.41h4.148V32.904z"/>
		<path fill="none" d="M205.639,32.904c0-2.414-0.129-3.973-0.387-4.676s-0.785-1.055-1.582-1.055c-0.984,0-1.594,0.299-1.828,0.896
			s-0.352,2.209-0.352,4.834v3.41h4.148V32.904z"/>
		<path fill="none" d="M278.201,27.174c-0.82,0-1.4,0.334-1.74,1.002s-0.51,1.986-0.51,3.955v15.68c0,2.086,0.129,3.439,0.387,4.061
			s0.797,0.932,1.617,0.932c0.938,0,1.547-0.375,1.828-1.125s0.422-2.449,0.422-5.098V32.131c0-2.133-0.123-3.492-0.369-4.078
			S279.045,27.174,278.201,27.174z"/>
		<path fill="#FFFFFF" d="M68.125,58.344c0.832-2.464,1.248-6.643,1.248-12.534v-2.218H54.572v7.154c0,1.501-0.04,2.733-0.119,3.708
			l9.443,9.443C66.011,62.26,67.427,60.411,68.125,58.344z"/>
		<path fill="#FFFFFF" d="M49.193,49.194V24.854c0-2.883,0.164-4.758,0.492-5.625s1.102-1.301,2.32-1.301
			c1.078,0,1.775,0.357,2.092,1.07s0.475,2.509,0.475,5.385v9.893h14.801v-5.407c0-5.313-0.445-9.228-1.336-11.743
			s-2.754-4.617-5.59-6.302c-2.836-1.686-6.434-2.528-10.793-2.528c-3.211,0-6.053,0.545-8.525,1.635s-4.406,2.584-5.801,4.482
			s-2.232,3.873-2.514,5.924s-0.422,5.127-0.422,9.229v4.829L49.193,49.194z"/>
		<path fill="#FFFFFF" d="M107.096,66.408V34.24c0-4.383-0.193-7.4-0.58-9.053s-1.453-3.111-3.199-4.377s-3.861-1.898-6.346-1.898
			c-1.617,0-3.135,0.282-4.553,0.846c-1.418,0.564-2.736,1.41-3.955,2.538V9.49H74.26v56.918h14.203V33.115
			c0-2.367,0.152-3.949,0.457-4.746s0.891-1.195,1.758-1.195c0.938,0,1.541,0.387,1.811,1.16s0.404,2.52,0.404,5.238v32.836H107.096
			z"/>
		<path fill="#FFFFFF" d="M143.377,66.408V42.994c0-7.711-0.246-12.803-0.738-15.275s-1.957-4.559-4.395-6.258
			s-6.059-2.549-10.863-2.549c-4.008,0-7.266,0.75-9.773,2.25s-4.178,3.229-5.01,5.186s-1.248,4.74-1.248,8.35v3.129h13.324v-4.887
			c0-2.602,0.117-4.213,0.352-4.834s0.832-0.932,1.793-0.932c0.844,0,1.447,0.369,1.811,1.107s0.545,2.326,0.545,4.764
			c0,1.945-0.164,3.234-0.492,3.867s-2.824,1.863-7.488,3.691c-4.359,1.688-7.09,3.164-8.191,4.43s-1.652,3.645-1.652,7.137v3.832
			c0,4.711,1.037,7.764,3.111,9.158s4.354,2.092,6.838,2.092c1.898,0,3.533-0.417,4.904-1.25c1.371-0.834,2.49-2.084,3.357-3.751
			v4.157H143.377z M129.174,53.822c0,2.344-0.135,3.791-0.404,4.342s-0.85,0.826-1.74,0.826c-0.938,0-1.564-0.352-1.881-1.055
			s-0.475-2.262-0.475-4.676c0-2.109,0.182-3.727,0.545-4.852s1.682-2.52,3.955-4.184V53.822z"/>
		<rect x="148.264" y="9.49" fill="#FFFFFF" width="14.625" height="56.918"/>
		<rect x="167.986" y="9.49" fill="#FFFFFF" width="14.625" height="56.918"/>
		<path fill="#FFFFFF" d="M219.877,43.908v-6.188c0-4.523-0.521-8.033-1.564-10.529s-2.859-4.5-5.449-6.012
			s-5.877-2.268-9.861-2.268c-3.258,0-6.141,0.627-8.648,1.881s-4.313,3.059-5.414,5.414s-1.652,5.572-1.652,9.65v13.605
			c0,3.469,0.246,6.111,0.738,7.928s1.377,3.48,2.654,4.992s3.064,2.701,5.361,3.568s4.945,1.301,7.945,1.301
			c3.094,0,5.666-0.439,7.717-1.318s3.744-2.197,5.08-3.955s2.186-3.41,2.549-4.957s0.545-3.762,0.545-6.645v-3.445h-13.465v6.152
			c0,2.32-0.182,3.885-0.545,4.693s-1.084,1.213-2.162,1.213c-0.867,0-1.453-0.305-1.758-0.914s-0.457-1.969-0.457-4.078v-10.09
			H219.877z M201.49,32.904c0-2.625,0.117-4.236,0.352-4.834s0.844-0.896,1.828-0.896c0.797,0,1.324,0.352,1.582,1.055
			s0.387,2.262,0.387,4.676v3.41h-4.148V32.904z"/>
		<path fill="#FFFFFF" d="M257.283,66.408V33.713c0-4.078-0.223-6.99-0.668-8.736s-1.441-3.193-2.988-4.342
			s-3.539-1.723-5.977-1.723c-1.945,0-3.662,0.429-5.15,1.285c-1.488,0.857-2.748,2.143-3.779,3.856l0.246-4.298h-14.449v46.652
			h14.203V34.873c0-3.516,0.129-5.678,0.387-6.486s0.891-1.213,1.898-1.213c0.961,0,1.547,0.352,1.758,1.055s0.316,2.66,0.316,5.871
			v32.309H257.283z"/>
		<path fill="#FFFFFF" d="M279.924,65.247c-0.352,0.634-1.066,0.95-2.145,0.95c-1.5,0-2.25-1.031-2.25-3.094h-13.781
			c0.094,4.5,1.512,7.518,4.254,9.053s6.375,2.303,10.898,2.303c3.68,0,6.732-0.416,9.158-1.248s4.318-2.039,5.678-3.621
			s2.15-3.082,2.373-4.5s0.334-4.553,0.334-9.404v-35.93h-13.219l-1.02,3.524c-1.148-1.456-2.455-2.548-3.92-3.276
			c-1.465-0.728-3.088-1.092-4.869-1.092c-3.258,0-5.684,0.973-7.277,2.918s-2.391,5.133-2.391,9.563v16.945
			c0,3.094,0.305,5.479,0.914,7.154s1.74,3.029,3.393,4.061s3.756,1.547,6.311,1.547c1.477,0,2.889-0.282,4.236-0.846
			s2.631-1.398,3.85-2.503v3.52C280.451,63.288,280.275,64.613,279.924,65.247z M280.205,46.58c0,2.648-0.141,4.348-0.422,5.098
			s-0.891,1.125-1.828,1.125c-0.82,0-1.359-0.311-1.617-0.932s-0.387-1.975-0.387-4.061v-15.68c0-1.969,0.17-3.287,0.51-3.955
			s0.92-1.002,1.74-1.002c0.844,0,1.389,0.293,1.635,0.879s0.369,1.945,0.369,4.078V46.58z"/>
		<path fill="#FFFFFF" d="M331.674,43.908v-6.188c0-4.523-0.521-8.033-1.564-10.529s-2.859-4.5-5.449-6.012
			s-5.877-2.268-9.861-2.268c-3.258,0-6.141,0.627-8.648,1.881s-4.313,3.059-5.414,5.414s-1.652,5.572-1.652,9.65v13.605
			c0,3.469,0.246,6.111,0.738,7.928s1.377,3.48,2.654,4.992s3.064,2.701,5.361,3.568s4.945,1.301,7.945,1.301
			c3.094,0,5.666-0.439,7.717-1.318s3.744-2.197,5.08-3.955s2.186-3.41,2.549-4.957s0.545-3.762,0.545-6.645v-3.445h-13.465v6.152
			c0,2.32-0.182,3.885-0.545,4.693s-1.084,1.213-2.162,1.213c-0.867,0-1.453-0.305-1.758-0.914s-0.457-1.969-0.457-4.078v-10.09
			H331.674z M313.287,32.904c0-2.625,0.117-4.236,0.352-4.834s0.844-0.896,1.828-0.896c0.797,0,1.324,0.352,1.582,1.055
			s0.387,2.262,0.387,4.676v3.41h-4.148V32.904z"/>
		<path fill="#FFFFFF" d="M340.462,20.962c-1.685,0.901-2.932,2.061-3.726,3.487c-0.984,1.77-1.477,4.518-1.477,8.244
			c0,2.625,0.457,4.893,1.371,6.803s3.457,4.037,7.629,6.381c4.969,2.766,7.723,4.43,8.262,4.992
			c0.516,0.563,0.773,1.957,0.773,4.184c0,1.617-0.199,2.678-0.598,3.182s-1.102,0.756-2.109,0.756
			c-0.938,0-1.564-0.375-1.881-1.125s-0.475-2.379-0.475-4.887v-2.953h-12.586v2.25c0,3.891,0.48,6.797,1.441,8.719
			s2.725,3.445,5.291,4.57s5.654,1.688,9.264,1.688c3.258,0,6.041-0.521,8.35-1.564s3.955-2.531,4.939-4.465
			s1.477-4.799,1.477-8.596c0-3.202-0.58-5.677-1.724-7.443l-2.735-2.735c-1.423-1.059-3.277-2.154-5.596-3.287
			c-3.094-1.523-5.139-2.684-6.135-3.48s-1.594-1.529-1.793-2.197s-0.299-1.717-0.299-3.146c0-0.591,0.069-1.091,0.195-1.517
			L340.462,20.962z"/>
		<polygon fill="#FFFFFF" points="352.732,33.232 352.732,34.662 354.163,34.662 		"/>
	</g>
</g>
</svg>
