<?xml version="1.0" encoding="utf-8"?>
<!-- Generator: Adobe Illustrator 16.0.0, SVG Export Plug-In . SVG Version: 6.00 Build 0)  -->
<!DOCTYPE svg PUBLIC "-//W3C//DTD SVG 1.1//EN" "http://www.w3.org/Graphics/SVG/1.1/DTD/svg11.dtd">
<svg version="1.1" id="Layer_1" xmlns="http://www.w3.org/2000/svg" xmlns:xlink="http://www.w3.org/1999/xlink" x="0px" y="0px"
	 width="338.67px" height="156.492px" viewBox="0 0 338.67 156.492" enable-background="new 0 0 338.67 156.492"
	 xml:space="preserve">
<g>
	<g>
		<g>
			<path fill="#FFFFFF" d="M59.251,140.342H21.277V29.686H0V0h80.613v29.686H59.251V140.342z M23.277,138.342h33.974V27.686h21.362
				V2H2v25.686h21.277V138.342z"/>
		</g>
		<g>
			<path fill="#FFFFFF" d="M112.423,156.236H90.491V136.12h1c6.512,0,9.046-0.411,10.025-0.755c0.765-0.269,1.643-0.817,1.643-2.688
				c0-0.473-0.275-2.619-2.119-11.679L81.898,24.951h33.42l10.138,68.428l4.945-68.428h33.289l-9.999,83.152
				c-1.558,12.959-2.882,21.933-3.938,26.67c-1.083,4.855-2.916,8.931-5.449,12.113c-2.559,3.215-6.151,5.609-10.675,7.117
				C129.189,155.484,122.055,156.236,112.423,156.236z M92.491,154.236h19.933c9.416,0,16.338-0.717,20.573-2.129
				c4.151-1.385,7.429-3.561,9.744-6.467c2.342-2.941,4.045-6.745,5.062-11.302c1.041-4.673,2.355-13.58,3.905-26.474l9.729-80.914
				h-29.174l-6.121,84.697l-12.548-84.697H84.335L103,120.604c1.935,9.505,2.159,11.443,2.159,12.073
				c0,2.917-1.62,4.098-2.979,4.575c-1.559,0.548-4.733,0.832-9.688,0.865V154.236z"/>
		</g>
		<g>
			<path fill="#FFFFFF" d="M204.258,156.492h-36.521V24.951h37.181l-0.478,7.996c2.626-2.971,5.48-5.296,8.512-6.932
				c3.832-2.067,8.074-3.115,12.608-3.115c5.547,0,10.418,1.517,14.479,4.509c4.074,3.005,6.658,6.542,7.681,10.511
				c0.985,3.826,1.484,10.35,1.484,19.39v47.766c0,10.353-0.63,17.847-1.874,22.274c-1.286,4.571-3.95,8.265-7.917,10.979
				c-3.943,2.695-8.748,4.063-14.28,4.063c-4.422,0-8.581-1.049-12.358-3.119c-3.043-1.667-5.899-4.01-8.517-6.985V156.492z
				 M169.737,154.492h32.521v-27.947l1.794,2.34c2.918,3.808,6.176,6.713,9.684,8.634c3.479,1.906,7.314,2.873,11.397,2.873
				c5.122,0,9.546-1.25,13.15-3.713c3.57-2.442,5.966-5.764,7.122-9.87c1.194-4.251,1.799-11.563,1.799-21.733V57.311
				c0-8.872-0.478-15.228-1.421-18.891c-0.906-3.512-3.238-6.675-6.932-9.4c-3.708-2.733-8.181-4.119-13.292-4.119
				c-4.2,0-8.122,0.967-11.659,2.875c-3.558,1.919-6.871,4.88-9.847,8.799l-1.991,2.621l0.731-12.245h-33.058V154.492z
				 M208.727,122.313c-3.384,0-4.789-1.736-5.372-3.193c-0.738-1.846-1.097-6.159-1.097-13.188V58.934
				c0-6.737,0.343-10.907,1.049-12.748c0.56-1.462,1.94-3.206,5.334-3.206c3.484,0,4.76,1.574,5.217,2.895
				c0.555,1.604,0.824,5.875,0.824,13.059v48.621c0,6.207-0.283,10.045-0.866,11.733
				C213.339,120.668,212.069,122.313,208.727,122.313z M208.642,44.98c-2.448,0-3.151,1.096-3.467,1.921
				c-0.418,1.09-0.917,4.063-0.917,12.032v46.998c0,8.315,0.519,11.357,0.954,12.445c0.332,0.831,1.058,1.936,3.515,1.936
				c2.348,0,2.95-0.958,3.2-1.678c0.345-0.999,0.756-3.733,0.756-11.08V58.934c0-8.546-0.388-11.463-0.714-12.405
				C211.836,46.146,211.433,44.98,208.642,44.98z"/>
		</g>
		<g>
			<path fill="#FFFFFF" d="M298.449,142.393c-7.698,0-14.326-0.863-19.699-2.567c-5.452-1.729-9.759-4.388-12.802-7.904
				c-3.022-3.489-5.206-7.765-6.492-12.707c-1.269-4.87-1.912-12.242-1.912-21.913V68.248c0-10.613,1.172-19.043,3.485-25.054
				c2.349-6.108,6.628-11.076,12.72-14.766c6.054-3.667,13.875-5.527,23.248-5.527c7.844,0,14.686,1.19,20.336,3.537
				c5.681,2.36,10.14,5.491,13.251,9.306c3.093,3.795,5.24,7.769,6.383,11.812c1.13,4.001,1.704,10.129,1.704,18.215v27.771
				c0,10.221-0.525,17.839-1.561,22.642c-1.054,4.889-3.335,9.515-6.781,13.75c-3.459,4.25-7.958,7.429-13.372,9.448
				C311.6,141.379,305.373,142.393,298.449,142.393z M296.996,24.9c-9.001,0-16.474,1.762-22.211,5.238
				c-5.703,3.454-9.704,8.088-11.889,13.773c-2.224,5.782-3.352,13.969-3.352,24.336v29.053c0,9.501,0.622,16.704,1.848,21.409
				c1.208,4.642,3.25,8.646,6.068,11.902c2.797,3.233,6.799,5.692,11.894,7.307c5.177,1.642,11.602,2.474,19.095,2.474
				c6.685,0,12.676-0.971,17.808-2.885c5.076-1.893,9.289-4.866,12.52-8.837c3.245-3.988,5.391-8.332,6.377-12.91
				c1.006-4.664,1.516-12.14,1.516-22.22V65.77c0-7.902-0.548-13.848-1.628-17.671c-1.068-3.778-3.089-7.51-6.008-11.091
				c-2.9-3.556-7.096-6.491-12.469-8.723C311.159,26.039,304.575,24.9,296.996,24.9z M298.107,122.313
				c-3.02,0-4.352-1.657-4.938-3.047c-0.743-1.765-1.104-5.315-1.104-10.856V57.225c0-6.009,0.365-9.736,1.114-11.392
				c0.59-1.301,1.938-2.852,5.013-2.852c3.092,0,4.393,1.566,4.939,2.881c0.684,1.65,1.017,5.367,1.017,11.363v52.295
				c0,5.085-0.349,8.348-1.068,9.974C302.512,120.78,301.188,122.313,298.107,122.313z M298.192,44.98
				c-2.179,0-2.864,0.958-3.191,1.677c-0.427,0.943-0.936,3.542-0.936,10.567v51.185c0,6.472,0.515,9.053,0.947,10.08
				c0.524,1.244,1.507,1.824,3.094,1.824c2.173,0,2.835-0.929,3.145-1.627c0.409-0.926,0.897-3.269,0.897-9.166V57.225
				c0-7.037-0.47-9.646-0.864-10.597C300.991,45.921,300.35,44.98,298.192,44.98z"/>
		</g>
	</g>
	<g>
		<path fill="none" d="M298.192,43.98c-2.051,0-3.418,0.756-4.102,2.265c-0.684,1.51-1.025,5.169-1.025,10.979v51.185
			c0,5.355,0.342,8.844,1.025,10.468c0.684,1.623,2.021,2.436,4.017,2.436c2.051,0,3.402-0.74,4.059-2.223
			c0.654-1.48,0.982-4.67,0.982-9.57V57.225c0-5.811-0.314-9.47-0.939-10.979C301.581,44.736,300.243,43.98,298.192,43.98z"/>
		<polygon fill="#EBAB34" points="58.251,100.579 53.16,102.332 53.16,134.749 27.16,134.749 27.16,111.283 22.277,112.964 
			22.277,139.342 58.251,139.342 		"/>
		<polygon fill="#FECC30" points="53.16,134.749 53.16,102.332 27.16,111.283 27.16,134.749 		"/>
		<polygon fill="#EBAB34" points="130.785,102.723 132.793,74.917 127.665,76.683 125.798,102.514 122.248,78.547 117.457,80.197 
			120.853,103.146 		"/>
		<path fill="#EBAB34" d="M104.159,132.677c0,1.88-0.771,3.091-2.311,3.632c-1.541,0.542-4.994,0.812-10.357,0.812v18.116h20.933
			c9.569,0,16.532-0.727,20.89-2.18s7.761-3.717,10.209-6.793s4.201-6.978,5.255-11.707c1.053-4.728,2.36-13.585,3.921-26.572
			l5.007-41.644l-5.273,1.815l-4.699,39.131c-1.534,12.764-2.825,21.589-3.837,26.133c-0.883,3.958-2.325,7.241-4.287,9.706
			c-1.849,2.324-4.427,3.781-7.879,4.934c-2.631,0.877-8.117,1.691-19.308,1.691H96.16v-7.727c4-0.182,6.029-0.592,7.182-0.998
			c3.538-1.242,5.734-4.364,5.734-8.349c0-0.745,0.041-1.973-2.199-12.977l-6.667-33.566l-4.772,1.643l6.581,33.022
			C103.446,127.807,104.159,131.767,104.159,132.677z"/>
		<path fill="#FECC30" d="M109.076,132.677c0,3.984-2.196,7.106-5.734,8.349c-1.152,0.406-3.182,0.816-7.182,0.998v7.727h16.263
			c11.191,0,16.677-0.814,19.308-1.691c3.452-1.152,6.03-2.609,7.879-4.934c1.962-2.465,3.404-5.748,4.287-9.706
			c1.012-4.544,2.303-13.369,3.837-26.133l4.699-39.131l-19.64,6.762l-2.008,27.806l-9.933,0.423l-3.396-22.949l-17.246,5.937
			l6.667,33.566C109.117,130.704,109.076,131.932,109.076,132.677z"/>
		<path fill="#EBAB34" d="M168.737,155.492h34.521v-25.998c3.019,3.938,6.351,6.905,9.998,8.902
			c3.645,1.998,7.605,2.996,11.877,2.996c5.354,0,9.926-1.297,13.715-3.888c3.788-2.592,6.294-6.067,7.52-10.425
			c1.225-4.358,1.838-11.692,1.838-22.004V57.311c0-9-0.485-15.381-1.453-19.141c-0.195-0.758-0.467-1.494-0.781-2.216l-4.752,1.636
			c0.283,0.595,0.51,1.203,0.671,1.828c0.591,2.293,1.271,7.261,1.271,17.893v47.766c0,12.212-0.875,17.971-1.629,20.652
			c-0.906,3.221-2.704,5.725-5.518,7.65c-2.967,2.027-6.518,3.014-10.881,3.014c-3.451,0-6.551-0.779-9.475-2.381
			c-3.018-1.652-5.854-4.195-8.432-7.56l-0.193-0.252c0.545,0.074,1.11,0.112,1.693,0.112c6.221,0,8.514-3.997,9.108-5.715
			c0.538-1.558,1.325-4.322,1.325-13.043V58.934c0-8.255-0.507-11.608-0.989-13.409l-5.01,1.725
			c0.348,2.023,0.522,5.915,0.522,11.685v48.621c0,6.039-0.271,9.842-0.813,11.407c-0.542,1.567-1.922,2.351-4.145,2.351
			c-2.279,0-3.759-0.855-4.443-2.564s-1.025-5.98-1.025-12.816V58.934c0-3.481,0.095-6.258,0.28-8.372l-5.197,1.789
			c-0.104,1.767-0.181,3.931-0.181,6.583v46.998c0,4.135,0.123,7.079,0.315,9.229l-0.315-0.41v35.999h-24V60.676l-5.423,1.867
			V155.492z"/>
		<path fill="#FECC30" d="M198.16,150.75v-35.999l0.315,0.41c-0.192-2.15-0.315-5.095-0.315-9.229V58.934
			c0-2.652,0.078-4.816,0.181-6.583l-24.181,8.325v90.074H198.16z"/>
		<path fill="#FECC30" d="M219.16,107.555c0,8.721-0.787,11.485-1.325,13.043c-0.595,1.718-2.888,5.715-9.108,5.715
			c-0.583,0-1.148-0.038-1.693-0.112l0.193,0.252c2.578,3.364,5.414,5.907,8.432,7.56c2.924,1.602,6.023,2.381,9.475,2.381
			c4.363,0,7.914-0.986,10.881-3.014c2.813-1.926,4.611-4.43,5.518-7.65c0.754-2.682,1.629-8.44,1.629-20.652V57.311
			c0-10.632-0.68-15.6-1.271-17.893c-0.161-0.625-0.388-1.233-0.671-1.828l-23.048,7.935c0.482,1.801,0.989,5.154,0.989,13.409
			V107.555z"/>
		<path fill="#EBAB34" d="M298.192,38.98c-4.003,0-7.11,1.896-8.608,5.201c-0.729,1.607-1.424,4.412-1.424,13.043v51.185
			c0,8.014,0.71,10.84,1.369,12.407c1.472,3.493,4.592,5.496,8.602,5.496c4.023,0,7.164-1.896,8.625-5.2
			c0.698-1.58,1.404-4.19,1.404-11.593V57.225c0-8.555-0.674-11.318-1.327-12.895C305.418,40.929,302.266,38.98,298.192,38.98z
			 M303.148,109.52c0,4.9-0.328,8.09-0.982,9.57c-0.656,1.482-2.008,2.223-4.059,2.223c-1.995,0-3.333-0.813-4.017-2.436
			c-0.684-1.624-1.025-5.112-1.025-10.468V57.225c0-5.811,0.342-9.47,1.025-10.979c0.684-1.509,2.051-2.265,4.102-2.265
			s3.389,0.756,4.017,2.265c0.625,1.51,0.939,5.169,0.939,10.979V109.52z"/>
		<path fill="#EBAB34" d="M296.996,23.9c-9.229,0-16.806,1.794-22.729,5.383c-5.925,3.589-10.026,8.346-12.305,14.27
			c-2.279,5.926-3.418,14.157-3.418,24.695v29.053c0,9.628,0.626,16.849,1.88,21.661c1.252,4.814,3.346,8.916,6.28,12.305
			c2.934,3.391,7.05,5.926,12.348,7.605c5.298,1.681,11.763,2.521,19.397,2.521c6.836,0,12.888-0.982,18.157-2.948
			c5.269-1.965,9.584-5.012,12.946-9.143c3.359-4.13,5.554-8.573,6.579-13.33c1.025-4.756,1.538-12.232,1.538-22.431V65.77
			c0-8.031-0.556-14.014-1.666-17.943c-1.111-3.932-3.177-7.747-6.195-11.451c-3.02-3.702-7.306-6.707-12.86-9.015
			C311.395,25.054,304.742,23.9,296.996,23.9z M325.922,39.535c2.57,3.154,4.592,6.401,5.51,9.651
			c0.98,3.47,1.729,9.049,1.729,16.583v27.771c0,9.797-0.725,16.989-1.671,21.377c-0.853,3.956-2.85,7.733-5.692,11.229
			c-2.815,3.458-6.414,5.949-10.876,7.613c-4.684,1.747-10.267,2.633-16.472,2.633c-7.083,0-13.101-0.77-17.887-2.287
			c-4.38-1.389-7.771-3.444-10.077-6.11c-2.415-2.788-4.362-6.25-5.415-10.292c-1.141-4.378-1.91-11.241-1.91-20.402V68.248
			c0-9.874,1.229-17.579,3.276-22.9c1.887-4.906,5.328-8.762,10.324-11.788c5.104-3.092,11.928-4.659,20.188-4.659
			c7.05,0,13.142,1.035,18.058,3.077C319.763,33.954,323.443,36.496,325.922,39.535z"/>
		<path fill="#FECC30" d="M296.948,28.9c-8.26,0-15.084,1.567-20.188,4.659c-4.996,3.026-8.438,6.882-10.324,11.788
			c-2.047,5.321-3.276,13.026-3.276,22.9v29.053c0,9.161,0.77,16.024,1.91,20.402c1.053,4.042,3,7.504,5.415,10.292
			c2.307,2.666,5.697,4.722,10.077,6.11c4.786,1.518,10.804,2.287,17.887,2.287c6.205,0,11.788-0.886,16.472-2.633
			c4.462-1.664,8.061-4.155,10.876-7.613c2.843-3.495,4.84-7.272,5.692-11.229c0.946-4.388,1.671-11.58,1.671-21.377V65.77
			c0-7.534-0.748-13.113-1.729-16.583c-0.918-3.25-2.939-6.497-5.51-9.651c-2.479-3.039-6.159-5.581-10.916-7.558
			C310.09,29.936,303.998,28.9,296.948,28.9z M308.16,109.52c0,7.402-0.706,10.013-1.404,11.593c-1.461,3.305-4.602,5.2-8.625,5.2
			c-4.01,0-7.13-2.003-8.602-5.496c-0.659-1.567-1.369-4.394-1.369-12.407V57.225c0-8.631,0.695-11.436,1.424-13.043
			c1.498-3.306,4.605-5.201,8.608-5.201c4.073,0,7.226,1.948,8.641,5.35c0.653,1.576,1.327,4.34,1.327,12.895V109.52z"/>
	</g>
</g>
</svg>
